<svg xmlns="http://www.w3.org/2000/svg" width="560" height="410" viewBox="0 0 560 410"><rect x="0" y="0" width="560" height="410" fill="white"/><text x="280.0" y="26" text-anchor="middle" font-family="Arial" font-size="16" font-weight="bold">Base Model Calibration</text><rect x="66" y="52" width="468" height="304" fill="#fafafa" stroke="#9aa7b0"/><line x1="66" y1="52" x2="66" y2="356" stroke="#e5e7eb"/><line x1="66" y1="356" x2="534" y2="356" stroke="#e5e7eb"/><text x="66" y="374" text-anchor="middle" font-family="Arial" font-size="11">0.0</text><text x="54" y="360" text-anchor="end" font-family="Arial" font-size="11">0.0</text><line x1="159.60000000000002" y1="52" x2="159.60000000000002" y2="356" stroke="#e5e7eb"/><line x1="66" y1="295.20000000000005" x2="534" y2="295.20000000000005" stroke="#e5e7eb"/><text x="159.60000000000002" y="374" text-anchor="middle" font-family="Arial" font-size="11">0.2</text><text x="54" y="299.20000000000005" text-anchor="end" font-family="Arial" font-size="11">0.2</text><line x1="253.20000000000002" y1="52" x2="253.20000000000002" y2="356" stroke="#e5e7eb"/><line x1="66" y1="234.4" x2="534" y2="234.4" stroke="#e5e7eb"/><text x="253.20000000000002" y="374" text-anchor="middle" font-family="Arial" font-size="11">0.4</text><text x="54" y="238.4" text-anchor="end" font-family="Arial" font-size="11">0.4</text><line x1="346.8" y1="52" x2="346.8" y2="356" stroke="#e5e7eb"/><line x1="66" y1="173.60000000000002" x2="534" y2="173.60000000000002" stroke="#e5e7eb"/><text x="346.8" y="374" text-anchor="middle" font-family="Arial" font-size="11">0.6</text><text x="54" y="177.60000000000002" text-anchor="end" font-family="Arial" font-size="11">0.6</text><line x1="440.40000000000003" y1="52" x2="440.40000000000003" y2="356" stroke="#e5e7eb"/><line x1="66" y1="112.79999999999998" x2="534" y2="112.79999999999998" stroke="#e5e7eb"/><text x="440.40000000000003" y="374" text-anchor="middle" font-family="Arial" font-size="11">0.8</text><text x="54" y="116.79999999999998" text-anchor="end" font-family="Arial" font-size="11">0.8</text><line x1="534.0" y1="52" x2="534.0" y2="356" stroke="#e5e7eb"/><line x1="66" y1="52.0" x2="534" y2="52.0" stroke="#e5e7eb"/><text x="534.0" y="374" text-anchor="middle" font-family="Arial" font-size="11">1.0</text><text x="54" y="56.0" text-anchor="end" font-family="Arial" font-size="11">1.0</text><line x1="66" y1="356" x2="534" y2="52" stroke="#111827" stroke-dasharray="5,4"/><polyline points="380.49600000000004,234.4 466.9200000000001,153.33333333333334" fill="none" stroke="#2563eb" stroke-width="2"/><circle cx="380.49600000000004" cy="234.4" r="4" fill="#1d4ed8"/><text x="386.49600000000004" y="228.4" font-family="Arial" font-size="10" fill="#111827">n=5</text><circle cx="466.9200000000001" cy="153.33333333333334" r="4" fill="#1d4ed8"/><text x="472.9200000000001" y="147.33333333333334" font-family="Arial" font-size="10" fill="#111827">n=3</text><text x="280.0" y="398" text-anchor="middle" font-family="Arial" font-size="12">Mean predicted confidence</text><text x="18" y="205.0" transform="rotate(-90 18 205.0)" text-anchor="middle" font-family="Arial" font-size="12">Empirical accuracy (rounded score match)</text></svg>