<svg xmlns="http://www.w3.org/2000/svg" width="330" height="332" viewBox="0 0 330 332"><rect x="0" y="0" width="330" height="332" fill="white"/><text x="165.0" y="28" text-anchor="middle" font-family="Arial" font-size="16" font-weight="bold">Base Model Confusion Matrix</text><text x="165.0" y="322" text-anchor="middle" font-family="Arial" font-size="12">Predicted score (rounded)</text><text x="18" y="166.0" transform="rotate(-90 18 166.0)" text-anchor="middle" font-family="Arial" font-size="12">Gold score (rounded)</text><text x="112.0" y="68" text-anchor="middle" font-family="Arial" font-size="12">0</text><text x="164.0" y="68" text-anchor="middle" font-family="Arial" font-size="12">2</text><text x="216.0" y="68" text-anchor="middle" font-family="Arial" font-size="12">3</text><text x="268.0" y="68" text-anchor="middle" font-family="Arial" font-size="12">4</text><text x="70" y="108.0" text-anchor="middle" font-family="Arial" font-size="12">0</text><text x="70" y="160.0" text-anchor="middle" font-family="Arial" font-size="12">2</text><text x="70" y="212.0" text-anchor="middle" font-family="Arial" font-size="12">3</text><text x="70" y="264.0" text-anchor="middle" font-family="Arial" font-size="12">4</text><rect x="86" y="78" width="52" height="52" fill="rgb(175,195,255)" stroke="#9aa7b0"/><text x="112.0" y="109.0" text-anchor="middle" font-family="Arial" font-size="13" fill="#1f2937">1</text><rect x="138" y="78" width="52" height="52" fill="rgb(255,255,255)" stroke="#9aa7b0"/><text x="164.0" y="109.0" text-anchor="middle" font-family="Arial" font-size="13" fill="#1f2937">0</text><rect x="190" y="78" width="52" height="52" fill="rgb(255,255,255)" stroke="#9aa7b0"/><text x="216.0" y="109.0" text-anchor="middle" font-family="Arial" font-size="13" fill="#1f2937">0</text><rect x="242" y="78" width="52" height="52" fill="rgb(255,255,255)" stroke="#9aa7b0"/><text x="268.0" y="109.0" text-anchor="middle" font-family="Arial" font-size="13" fill="#1f2937">0</text><rect x="86" y="130" width="52" height="52" fill="rgb(255,255,255)" stroke="#9aa7b0"/><text x="112.0" y="161.0" text-anchor="middle" font-family="Arial" font-size="13" fill="#1f2937">0</text><rect x="138" y="130" width="52" height="52" fill="rgb(95,115,255)" stroke="#9aa7b0"/><text x="164.0" y="161.0" text-anchor="middle" font-family="Arial" font-size="13" fill="#1f2937">2</text><rect x="190" y="130" width="52" height="52" fill="rgb(95,115,255)" stroke="#9aa7b0"/><text x="216.0" y="161.0" text-anchor="middle" font-family="Arial" font-size="13" fill="#1f2937">2</text><rect x="242" y="130" width="52" height="52" fill="rgb(255,255,255)" stroke="#9aa7b0"/><text x="268.0" y="161.0" text-anchor="middle" font-family="Arial" font-size="13" fill="#1f2937">0</text><rect x="86" y="182" width="52" height="52" fill="rgb(255,255,255)" stroke="#9aa7b0"/><text x="112.0" y="213.0" text-anchor="middle" font-family="Arial" font-size="13" fill="#1f2937">0</text><rect x="138" y="182" width="52" height="52" fill="rgb(175,195,255)" stroke="#9aa7b0"/><text x="164.0" y="213.0" text-anchor="middle" font-family="Arial" font-size="13" fill="#1f2937">1</text><rect x="190" y="182" width="52" height="52" fill="rgb(175,195,255)" stroke="#9aa7b0"/><text x="216.0" y="213.0" text-anchor="middle" font-family="Arial" font-size="13" fill="#1f2937">1</text><rect x="242" y="182" width="52" height="52" fill="rgb(175,195,255)" stroke="#9aa7b0"/><text x="268.0" y="213.0" text-anchor="middle" font-family="Arial" font-size="13" fill="#1f2937">1</text><rect x="86" y="234" width="52" height="52" fill="rgb(255,255,255)" stroke="#9aa7b0"/><text x="112.0" y="265.0" text-anchor="middle" font-family="Arial" font-size="13" fill="#1f2937">0</text><rect x="138" y="234" width="52" height="52" fill="rgb(255,255,255)" stroke="#9aa7b0"/><text x="164.0" y="265.0" text-anchor="middle" font-family="Arial" font-size="13" fill="#1f2937">0</text><rect x="190" y="234" width="52" height="52" fill="rgb(255,255,255)" stroke="#9aa7b0"/><text x="216.0" y="265.0" text-anchor="middle" font-family="Arial" font-size="13" fill="#1f2937">0</text><rect x="242" y="234" width="52" height="52" fill="rgb(255,255,255)" stroke="#9aa7b0"/><text x="268.0" y="265.0" text-anchor="middle" font-family="Arial" font-size="13" fill="#1f2937">0</text></svg>